<?xml version="1.0" encoding="UTF-8"?>
<!-- Generator: visioncortex VTracer 0.6.3 -->
<svg version="1.1" xmlns="http://www.w3.org/2000/svg" width="1280" height="1280">
<path d="M0 0 C1.3 -0.01 1.3 -0.01 2.63 -0.02 C3.59 -0.02 4.55 -0.02 5.54 -0.02 C6.56 -0.02 7.57 -0.03 8.61 -0.03 C12.04 -0.04 15.47 -0.05 18.89 -0.06 C21.34 -0.06 23.78 -0.07 26.23 -0.08 C33.59 -0.1 40.95 -0.12 48.31 -0.13 C50.38 -0.14 52.46 -0.14 54.54 -0.14 C67.43 -0.17 80.33 -0.19 93.22 -0.2 C96.21 -0.21 99.2 -0.21 102.19 -0.21 C102.93 -0.21 103.67 -0.21 104.44 -0.22 C116.47 -0.23 128.51 -0.26 140.54 -0.3 C152.89 -0.35 165.24 -0.37 177.58 -0.37 C184.52 -0.38 191.45 -0.39 198.39 -0.42 C204.91 -0.45 211.44 -0.46 217.96 -0.45 C220.36 -0.45 222.76 -0.45 225.15 -0.47 C228.42 -0.5 231.69 -0.49 234.95 -0.47 C235.91 -0.48 236.86 -0.5 237.84 -0.51 C242.38 -0.46 244.34 -0.4 247.97 2.52 C248.98 3.81 248.98 3.81 250 5.14 C251.24 6.37 251.24 6.37 252.5 7.64 C350 105.14 350 105.14 352.56 107.76 C354.89 110.14 354.89 110.14 357.31 111.82 C357.87 112.26 358.43 112.69 359 113.14 C359 113.8 359 114.46 359 115.14 C360.49 114.64 360.49 114.64 362 114.14 C362.98 111.66 362.98 111.66 363.69 108.57 C366.09 100.2 369.94 92.81 374 85.14 C374.54 84.09 375.09 83.04 375.64 81.96 C378.23 77.05 380.99 72.55 384.42 68.2 C386.94 64.92 389.19 61.47 391.49 58.04 C391.99 57.41 392.49 56.79 393 56.14 C393.66 56.14 394.32 56.14 395 56.14 C395.33 55.15 395.66 54.16 396 53.14 C396.66 53.14 397.32 53.14 398 53.14 C398.31 52.33 398.31 52.33 398.63 51.51 C400.53 48.22 403.05 45.54 406 43.14 C406.66 43.14 407.32 43.14 408 43.14 C408.33 42.15 408.66 41.16 409 40.14 C409.66 40.14 410.32 40.14 411 40.14 C411 39.48 411 38.82 411 38.14 C413.06 36.44 413.06 36.44 415.88 34.45 C416.89 33.74 417.9 33.02 418.94 32.29 C420.45 31.22 420.45 31.22 422 30.14 C423.26 29.21 423.26 29.21 424.54 28.27 C429.86 24.38 435.32 21.33 441.26 18.48 C443.45 17.41 445.49 16.28 447.56 15.01 C451.38 12.93 455.21 11.5 459.31 10.07 C461.57 9.29 463.78 8.45 466 7.57 C494.54 -3.01 529.9 -3.48 559 5.14 C559.8 5.35 560.6 5.56 561.42 5.78 C568.66 7.77 575.24 10.91 582 14.14 C584.02 15.06 586.04 15.98 588.06 16.89 C591.08 18.25 594.06 19.64 597 21.14 C597 21.8 597 22.46 597 23.14 C597.54 23.23 598.09 23.33 598.64 23.42 C601.7 24.35 604.06 25.86 606.75 27.57 C608.23 28.5 608.23 28.5 609.74 29.45 C610.48 30 611.23 30.56 612 31.14 C612 31.8 612 32.46 612 33.14 C612.74 33.41 613.49 33.67 614.25 33.95 C616.89 35.09 618.86 36.23 621 38.14 C621 38.8 621 39.46 621 40.14 C621.99 40.47 622.98 40.8 624 41.14 C624 41.8 624 42.46 624 43.14 C624.54 43.34 625.07 43.55 625.63 43.76 C628.92 45.67 631.6 48.19 634 51.14 C634 51.8 634 52.46 634 53.14 C634.99 53.47 635.98 53.8 637 54.14 C637 54.8 637 55.46 637 56.14 C637.66 56.14 638.32 56.14 639 56.14 C640.29 57.6 640.29 57.6 641.63 59.51 C642.3 60.45 642.3 60.45 642.98 61.41 C644 63.14 644 63.14 644 65.14 C644.66 65.14 645.32 65.14 646 65.14 C647.24 66.65 647.24 66.65 648.6 68.75 C649.34 69.88 649.34 69.88 650.09 71.03 C650.6 71.83 651.1 72.63 651.63 73.45 C652.14 74.24 652.66 75.02 653.19 75.83 C657 81.76 657 81.76 657 85.14 C657.66 85.14 658.32 85.14 659 85.14 C662.02 91.52 664.75 97.92 667.1 104.58 C667.89 106.83 668.75 109.04 669.63 111.26 C671.01 114.89 671.83 118.55 672.57 122.35 C672.84 124.15 672.84 124.15 674 125.14 C679.41 147.31 679.3 173.95 674 196.14 C673.81 196.93 673.63 197.72 673.43 198.53 C671.56 206.18 669.58 213.34 665.92 220.34 C664.8 222.53 663.92 224.77 663.06 227.07 C658.86 237.76 652.35 247.61 646 257.14 C645.34 257.14 644.68 257.14 644 257.14 C643.73 257.88 643.47 258.62 643.19 259.39 C642.05 262.03 640.91 263.99 639 266.14 C638.34 266.14 637.68 266.14 637 266.14 C636.67 267.13 636.34 268.12 636 269.14 C635.34 269.14 634.68 269.14 634 269.14 C633.8 269.67 633.59 270.21 633.38 270.76 C631.47 274.06 628.95 276.73 626 279.14 C625.34 279.14 624.68 279.14 624 279.14 C623.67 280.13 623.34 281.12 623 282.14 C622.34 282.14 621.68 282.14 621 282.14 C621 282.8 621 283.46 621 284.14 C619.54 285.43 619.54 285.43 617.63 286.76 C617 287.21 616.37 287.65 615.73 288.11 C614 289.14 614 289.14 612 289.14 C612 289.8 612 290.46 612 291.14 C610 292.76 610 292.76 608 294.14 C611.29 296.22 614.37 297.73 618.06 298.95 C623.31 300.79 628.16 303.11 633.08 305.67 C635.17 306.72 637.3 307.69 639.44 308.61 C657.66 316.43 674.43 327.99 690 340.14 C690.77 340.67 691.53 341.2 692.31 341.75 C692.87 342.21 693.43 342.67 694 343.14 C694 343.8 694 344.46 694 345.14 C694.58 345.41 695.15 345.68 695.75 345.95 C698.04 347.16 700 348.51 702.06 350.07 C703.07 350.83 703.07 350.83 704.1 351.6 C705.87 353.03 707.5 354.42 709 356.14 C709 356.8 709 357.46 709 358.14 C709.96 358.54 709.96 358.54 710.94 358.95 C713 360.14 713 360.14 714 363.14 C714.66 363.47 715.32 363.8 716 364.14 C716.66 364.47 717.32 364.8 718 365.14 C718.33 366.13 718.66 367.12 719 368.14 C719.66 368.14 720.32 368.14 721 368.14 C722.59 369.71 722.59 369.71 724.38 371.82 C724.99 372.55 725.61 373.28 726.25 374.03 C726.83 374.73 727.41 375.42 728 376.14 C728.81 377.09 729.61 378.03 730.44 379.01 C732 381.14 732 381.14 732 383.14 C732.66 383.14 733.32 383.14 734 383.14 C735.6 384.95 737.05 386.77 738.5 388.7 C738.94 389.28 739.39 389.87 739.84 390.47 C754.24 409.7 767.18 430.76 776 453.14 C776.46 454.22 776.92 455.29 777.39 456.41 C780.64 464.15 783.3 471.98 785.75 480.01 C786.05 480.97 786.34 481.94 786.64 482.93 C788.34 488.63 789.78 494.32 791 500.14 C791.26 501.25 791.52 502.37 791.78 503.52 C793.78 512.36 795.01 521.13 796 530.14 C796.17 531.36 796.34 532.58 796.52 533.83 C797.32 541.15 797.16 548.53 797.16 555.88 C797.17 557.57 797.17 559.26 797.18 560.95 C797.19 565.52 797.2 570.09 797.2 574.66 C797.21 577.52 797.21 580.38 797.21 583.25 C797.23 592.23 797.24 601.21 797.24 610.19 C797.25 620.51 797.26 630.84 797.29 641.16 C797.31 649.17 797.32 657.18 797.33 665.19 C797.33 669.96 797.33 674.73 797.35 679.5 C797.37 683.99 797.37 688.48 797.36 692.98 C797.36 694.61 797.36 696.25 797.37 697.89 C797.46 712.16 796.24 726.07 790 739.14 C789.74 739.72 789.47 740.3 789.2 740.9 C784.59 751.05 779.15 759.57 772 768.14 C771.57 768.66 771.14 769.19 770.7 769.73 C767.7 773.4 764.77 776.29 761 779.14 C760.34 779.14 759.68 779.14 759 779.14 C759 779.8 759 780.46 759 781.14 C753.18 785.7 746.4 789.07 739.81 792.39 C739.16 792.72 738.51 793.04 737.84 793.38 C722.93 800.73 708.46 802.62 692.06 802.32 C690.59 802.31 689.12 802.3 687.64 802.28 C684.1 802.25 680.55 802.2 677 802.14 C677 802.89 677.01 803.65 677.01 804.43 C677.1 849.38 677.16 894.34 677.21 939.29 C677.21 944.69 677.22 950.09 677.22 955.49 C677.22 957.11 677.22 957.11 677.23 958.75 C677.24 976.15 677.27 993.54 677.31 1010.93 C677.35 1028.79 677.37 1046.65 677.38 1064.51 C677.38 1075.52 677.4 1086.54 677.43 1097.55 C677.46 1105.11 677.46 1112.67 677.46 1120.23 C677.45 1124.58 677.46 1128.94 677.48 1133.3 C677.5 1137.3 677.5 1141.3 677.49 1145.29 C677.48 1146.73 677.49 1148.17 677.5 1149.6 C677.67 1169.71 671.25 1187.11 661 1204.14 C660.34 1204.14 659.68 1204.14 659 1204.14 C658.8 1204.82 658.6 1205.51 658.4 1206.22 C656.51 1210.18 653.8 1212.78 650.69 1215.82 C650.12 1216.41 649.55 1216.99 648.97 1217.58 C645.85 1220.67 643.32 1222.88 639 1224.14 C639 1224.8 639 1225.46 639 1226.14 C619.4 1240.64 593.42 1245.08 569.63 1241.61 C562.99 1240.27 557.05 1238.15 551 1235.14 C549.78 1234.61 548.55 1234.09 547.31 1233.57 C544.15 1232.2 541.07 1230.71 538 1229.14 C538 1228.48 538 1227.82 538 1227.14 C537.44 1227.04 536.88 1226.95 536.3 1226.85 C533.44 1225.96 531.6 1224.55 529.25 1222.7 C528.05 1221.77 528.05 1221.77 526.83 1220.83 C525.93 1219.99 525.93 1219.99 525 1219.14 C525 1218.48 525 1217.82 525 1217.14 C524.04 1216.73 524.04 1216.73 523.06 1216.32 C521 1215.14 521 1215.14 520 1212.14 C519.34 1212.14 518.68 1212.14 518 1212.14 C517.67 1211.48 517.34 1210.82 517 1210.14 C516.34 1210.14 515.68 1210.14 515 1210.14 C514.67 1210.8 514.34 1211.46 514 1212.14 C513.34 1212.14 512.68 1212.14 512 1212.14 C511.73 1212.78 511.47 1213.42 511.19 1214.07 C510 1216.14 510 1216.14 507 1217.14 C507 1217.8 507 1218.46 507 1219.14 C505.27 1220.58 503.46 1221.95 501.63 1223.26 C500.63 1223.99 499.63 1224.71 498.6 1225.46 C496 1227.14 496 1227.14 494 1227.14 C494 1227.8 494 1228.46 494 1229.14 C485.24 1234.54 475.9 1237.47 466 1240.14 C464.28 1240.65 464.28 1240.65 462.52 1241.17 C457.21 1242.48 451.95 1242.52 446.5 1242.51 C445.44 1242.51 444.39 1242.51 443.3 1242.51 C434.3 1242.37 426.54 1240.97 418 1238.14 C417.04 1237.85 416.07 1237.56 415.08 1237.26 C407.13 1234.69 400.13 1230.42 393 1226.14 C393 1225.48 393 1224.82 393 1224.14 C392.32 1223.94 391.63 1223.74 390.92 1223.53 C386.96 1221.64 384.36 1218.93 381.31 1215.82 C380.73 1215.26 380.15 1214.69 379.55 1214.1 C376.46 1210.99 374.26 1208.45 373 1204.14 C372.34 1204.14 371.68 1204.14 371 1204.14 C366.3 1197.78 363.07 1190.38 360 1183.14 C359.68 1182.4 359.36 1181.66 359.03 1180.91 C355.03 1170.18 354.57 1158.95 354.64 1147.63 C354.64 1146.13 354.64 1144.62 354.63 1143.12 C354.63 1139.04 354.64 1134.96 354.65 1130.88 C354.67 1126.46 354.66 1122.04 354.66 1117.62 C354.66 1109.98 354.67 1102.34 354.69 1094.7 C354.71 1083.65 354.72 1072.6 354.72 1061.55 C354.73 1043.62 354.75 1025.7 354.78 1007.77 C354.8 990.36 354.82 972.96 354.84 955.55 C354.84 954.47 354.84 953.4 354.84 952.29 C354.84 946.9 354.85 941.51 354.85 936.12 C354.88 891.46 354.94 846.8 355 802.14 C354.11 802.15 353.22 802.17 352.3 802.18 C348.92 802.24 345.54 802.27 342.15 802.3 C340.7 802.32 339.26 802.34 337.81 802.36 C325.17 802.59 312.63 801.89 301.1 796.16 C298.82 795.05 296.51 794.2 294.13 793.32 C284.27 789.4 276.11 782.84 268 776.14 C267.14 775.46 266.28 774.79 265.39 774.09 C262.42 771.66 260.32 769.19 258 766.14 C258 765.48 258 764.82 258 764.14 C257.34 764.14 256.68 764.14 256 764.14 C253 759.75 253 759.75 253 757.14 C252.34 757.14 251.68 757.14 251 757.14 C239.94 737.3 234.51 719.25 234.63 696.58 C234.63 694.87 234.62 693.17 234.62 691.46 C234.61 686.88 234.62 682.29 234.63 677.71 C234.64 672.88 234.64 668.06 234.64 663.24 C234.64 655.14 234.65 647.05 234.67 638.95 C234.69 629.62 234.69 620.29 234.68 610.96 C234.68 601.95 234.68 592.93 234.7 583.92 C234.7 580.1 234.7 576.28 234.7 572.46 C234.7 567.96 234.71 563.46 234.72 558.95 C234.73 557.31 234.73 555.67 234.72 554.03 C234.71 545.53 235.01 537.33 236.54 528.94 C237.02 526.06 237.23 523.24 237.38 520.32 C237.78 514.66 239.04 509.38 240.54 503.92 C241.45 500.59 242.15 497.34 242.55 493.91 C242.9 490.98 243.31 488.68 244.31 485.95 C245.6 482.38 246.71 478.79 247.79 475.16 C249.89 468.29 252.41 461.65 255.13 455.01 C255.84 453.26 255.84 453.26 256.58 451.47 C262.47 437.3 269.43 423.87 278 411.14 C278.63 410.18 279.25 409.22 279.89 408.23 C287.69 396.31 296.34 385.37 305.7 374.67 C306.93 373.23 308.08 371.73 309.23 370.23 C309.82 369.54 310.4 368.85 311 368.14 C311.66 368.14 312.32 368.14 313 368.14 C313.27 367.5 313.54 366.86 313.81 366.2 C315 364.14 315 364.14 318 363.14 C318.33 362.48 318.66 361.82 319 361.14 C320 359.14 320 359.14 323 358.14 C323 357.48 323 356.82 323 356.14 C324.58 354.55 324.58 354.55 326.69 352.76 C327.42 352.14 328.15 351.53 328.9 350.89 C329.59 350.31 330.29 349.73 331 349.14 C331.95 348.33 332.9 347.53 333.88 346.7 C336 345.14 336 345.14 338 345.14 C338 344.48 338 343.82 338 343.14 C339.82 341.54 341.63 340.08 343.56 338.64 C344.15 338.2 344.73 337.76 345.33 337.3 C352.02 332.28 358.97 327.67 366 323.14 C367.07 322.44 368.14 321.73 369.24 321.01 C375.93 316.74 382.78 313.19 390 309.93 C393.32 308.42 396.53 306.87 399.68 305.03 C402.56 303.39 405.19 302.2 408.31 301.14 C413.61 299.29 418.81 297.25 424 295.14 C423.34 294.52 422.68 293.9 422 293.26 C420 291.14 420 291.14 420 289.14 C419.26 288.87 418.52 288.6 417.75 288.32 C415.11 287.18 413.15 286.04 411 284.14 C411 283.48 411 282.82 411 282.14 C410.01 281.81 409.02 281.48 408 281.14 C408 280.48 408 279.82 408 279.14 C407.2 278.83 407.2 278.83 406.38 278.51 C403.08 276.6 400.41 274.09 398 271.14 C398 270.48 398 269.82 398 269.14 C397.01 268.81 396.02 268.48 395 268.14 C395 267.48 395 266.82 395 266.14 C394.34 266.14 393.68 266.14 393 266.14 C391.71 264.68 391.71 264.68 390.38 262.76 C389.93 262.14 389.49 261.51 389.03 260.86 C388 259.14 388 259.14 388 257.14 C387.34 257.14 386.68 257.14 386 257.14 C380.83 250.57 376.9 243.31 373.3 235.8 C372.27 233.68 371.18 231.7 369.94 229.7 C360.07 212.69 354.39 188.74 355 169.14 C354.34 169.14 353.68 169.14 353 169.14 C351.45 167.56 351.45 167.56 349.69 165.45 C346.92 162.19 344.07 159.12 341 156.14 C236 51.14 236 51.14 233.38 48.45 C231.03 46.02 231.03 46.02 228 44.14 C228 43.48 228 42.82 228 42.14 C226.81 42.14 225.61 42.14 224.38 42.14 C196.05 42.16 167.72 42.18 139.39 42.19 C135.9 42.19 132.42 42.19 128.94 42.19 C128.24 42.19 127.55 42.19 126.83 42.19 C115.59 42.2 104.35 42.2 93.1 42.21 C81.57 42.22 70.04 42.23 58.51 42.23 C52.03 42.23 45.55 42.24 39.07 42.24 C32.98 42.25 26.89 42.25 20.8 42.25 C18.56 42.25 16.32 42.25 14.07 42.26 C11.02 42.26 7.98 42.26 4.93 42.26 C3.58 42.26 3.58 42.26 2.2 42.27 C-3.88 42.25 -3.88 42.25 -5 41.14 C-5.1 38.19 -5.14 35.27 -5.13 32.32 C-5.13 31.44 -5.13 30.56 -5.13 29.65 C-5.13 27.77 -5.13 25.9 -5.13 24.03 C-5.12 21.15 -5.13 18.27 -5.13 15.39 C-5.13 13.58 -5.13 11.76 -5.13 9.95 C-5.13 9.08 -5.13 8.22 -5.14 7.32 C-5.11 0.02 -5.11 0.02 0 0 Z " fill="#000000" transform="translate(463.99780654907227,18.862985610961914)"/>
<path d="M0 0 C2.02 -0 4.04 -0.02 6.06 -0.04 C13.14 -0.05 19.39 0.37 26.22 2.19 C27.58 2.32 28.93 2.42 30.29 2.5 C42.16 3.7 53.67 8.95 64.22 14.19 C64.93 14.51 65.63 14.84 66.35 15.17 C70.8 17.28 75.01 19.77 79.22 22.31 C80.11 22.83 80.11 22.83 81.01 23.37 C82.45 24.25 83.84 25.21 85.22 26.19 C85.22 26.85 85.22 27.51 85.22 28.19 C85.89 28.37 86.55 28.56 87.24 28.75 C91.52 30.81 94.56 33.86 97.97 37.12 C98.69 37.8 99.4 38.48 100.14 39.18 C115.52 54.01 130.41 74.05 135.65 95.17 C136.27 97.35 137.19 99.18 138.22 101.19 C140.29 107.39 141.21 113.74 142.22 120.19 C142.48 121.56 142.48 121.56 142.74 122.96 C147.99 157.96 138.01 195.69 117.22 224.19 C116.56 224.19 115.9 224.19 115.22 224.19 C115.03 224.86 114.83 225.54 114.62 226.24 C112.7 230.29 109.93 233.14 106.85 236.37 C106.23 237.03 105.61 237.69 104.97 238.36 C99.48 244.1 93.7 249.56 87.22 254.19 C86.56 254.19 85.9 254.19 85.22 254.19 C84.89 255.18 84.56 256.17 84.22 257.19 C85.26 257.69 86.3 258.2 87.37 258.72 C95.2 262.58 102.83 266.54 110.22 271.19 C111.01 271.65 111.8 272.12 112.61 272.6 C113.72 273.26 113.72 273.26 114.85 273.94 C115.5 274.32 116.15 274.71 116.83 275.11 C117.52 275.64 117.52 275.64 118.22 276.19 C118.22 276.85 118.22 277.51 118.22 278.19 C119.25 278.5 119.25 278.5 120.3 278.83 C124.13 280.6 126.9 283.09 130.04 285.87 C130.65 286.41 131.27 286.95 131.9 287.51 C133.12 288.58 134.34 289.65 135.56 290.73 C136.97 291.97 138.41 293.18 139.85 294.39 C140.55 294.98 141.25 295.58 141.97 296.19 C142.57 296.68 143.16 297.18 143.77 297.69 C145.22 299.19 145.22 299.19 146.24 301.31 C147.13 303.54 147.13 303.54 150.22 304.19 C150.22 304.85 150.22 305.51 150.22 306.19 C150.88 306.19 151.54 306.19 152.22 306.19 C153.74 307.87 153.74 307.87 155.47 310.19 C156.09 311 156.7 311.82 157.34 312.66 C157.96 313.49 158.58 314.33 159.22 315.19 C159.82 315.95 160.41 316.71 161.02 317.49 C161.56 318.2 162.1 318.9 162.66 319.62 C163.16 320.26 163.65 320.9 164.16 321.56 C165.22 323.19 165.22 323.19 165.22 325.19 C165.88 325.19 166.54 325.19 167.22 325.19 C168.46 326.85 168.46 326.85 169.83 329.17 C170.34 330.02 170.84 330.87 171.36 331.74 C171.89 332.65 172.43 333.56 172.97 334.5 C173.52 335.42 174.06 336.33 174.62 337.28 C176.16 339.91 177.7 342.55 179.22 345.19 C180.21 346.88 180.21 346.88 181.21 348.61 C184.41 354.31 186.95 360.07 189.22 366.19 C189.73 367.49 190.23 368.79 190.73 370.09 C191.27 371.49 191.81 372.9 192.35 374.31 C192.6 374.97 192.86 375.62 193.12 376.3 C194.85 380.88 196.09 385.43 197.22 390.19 C197.59 391.51 197.59 391.51 197.97 392.85 C202.8 410.45 203.67 428.23 203.61 446.37 C203.62 448.61 203.62 450.84 203.63 453.08 C203.64 459.08 203.64 465.09 203.63 471.1 C203.62 477.41 203.63 483.73 203.63 490.05 C203.64 501.32 203.63 512.6 203.61 523.87 C203.6 534.06 203.6 544.25 203.62 554.44 C203.63 566.33 203.64 578.22 203.63 590.11 C203.62 596.39 203.62 602.66 203.63 608.94 C203.64 614.83 203.64 620.73 203.62 626.62 C203.61 628.77 203.62 630.93 203.62 633.08 C203.7 661.15 203.7 661.15 197.29 672.24 C196.08 674.37 196.08 674.37 194.85 677.51 C187.75 694.29 172.39 708.4 155.85 715.67 C153.98 716.34 152.1 716.98 150.2 717.56 C148.24 718.01 148.24 718.01 147.22 719.19 C146.19 719.33 145.16 719.47 144.1 719.62 C140.27 720.07 140.27 720.07 136.91 721.25 C133.22 722.19 133.22 722.19 123.22 722.19 C123.55 783.57 123.88 844.95 124.22 908.19 C130.91 902.34 130.91 902.34 137.22 896.19 C233.35 800.06 233.35 800.06 237.23 800.06 C238.54 800.06 238.54 800.06 239.87 800.05 C240.83 800.05 241.8 800.06 242.79 800.06 C243.81 800.06 244.82 800.06 245.87 800.05 C249.31 800.05 252.74 800.05 256.18 800.06 C258.63 800.05 261.08 800.05 263.53 800.05 C269.52 800.05 275.5 800.05 281.49 800.05 C286.35 800.05 291.21 800.05 296.07 800.05 C297.11 800.05 297.11 800.05 298.17 800.05 C299.57 800.05 300.97 800.05 302.37 800.05 C315.54 800.05 328.71 800.05 341.88 800.06 C353.2 800.06 364.51 800.06 375.82 800.05 C388.94 800.05 402.06 800.05 415.18 800.05 C416.58 800.05 417.98 800.05 419.38 800.05 C420.06 800.05 420.75 800.05 421.46 800.05 C426.32 800.05 431.18 800.05 436.04 800.05 C442.57 800.05 449.1 800.05 455.64 800.05 C458.04 800.06 460.45 800.05 462.85 800.05 C466.12 800.05 469.39 800.05 472.66 800.06 C473.62 800.06 474.59 800.05 475.58 800.05 C476.45 800.05 477.32 800.06 478.22 800.06 C478.97 800.06 479.73 800.06 480.5 800.06 C482.22 800.19 482.22 800.19 483.22 801.19 C483.33 804.13 483.36 807.05 483.36 810 C483.36 810.88 483.36 811.77 483.36 812.68 C483.36 814.55 483.36 816.42 483.35 818.3 C483.35 821.17 483.35 824.05 483.36 826.93 C483.36 828.74 483.36 830.56 483.36 832.37 C483.36 833.24 483.36 834.11 483.36 835 C483.34 841.07 483.34 841.07 482.22 842.19 C479.24 842.28 476.28 842.32 473.3 842.31 C472.35 842.31 471.4 842.31 470.42 842.31 C467.22 842.31 464.02 842.3 460.81 842.3 C458.53 842.3 456.24 842.3 453.96 842.3 C447.73 842.3 441.5 842.29 435.28 842.29 C428.78 842.28 422.28 842.28 415.78 842.28 C404.86 842.28 393.94 842.27 383.03 842.26 C371.78 842.25 360.54 842.24 349.29 842.24 C348.6 842.24 347.91 842.24 347.19 842.24 C343.72 842.24 340.24 842.24 336.77 842.24 C307.92 842.23 279.07 842.21 250.22 842.19 C250.22 842.85 250.22 843.51 250.22 844.19 C248.65 845.74 248.65 845.74 246.54 847.5 C243.28 850.27 240.21 853.12 237.22 856.19 C132.22 961.19 132.22 961.19 129.54 963.81 C127.11 966.16 127.11 966.16 125.22 969.19 C124.56 969.19 123.9 969.19 123.22 969.19 C123.23 969.85 123.23 970.52 123.24 971.2 C123.32 987.48 123.39 1003.76 123.43 1020.04 C123.45 1027.91 123.48 1035.78 123.53 1043.66 C123.57 1050.53 123.59 1057.39 123.6 1064.26 C123.61 1067.89 123.62 1071.52 123.65 1075.15 C123.87 1104.32 123.87 1104.32 119.22 1116.19 C118.93 1116.95 118.63 1117.71 118.33 1118.49 C115.48 1125.12 111.85 1131.64 107.22 1137.19 C106.56 1137.19 105.9 1137.19 105.22 1137.19 C105.22 1137.85 105.22 1138.51 105.22 1139.19 C104.56 1139.19 103.9 1139.19 103.22 1139.19 C102.82 1140.14 102.82 1140.14 102.41 1141.12 C101.22 1143.19 101.22 1143.19 98.22 1144.19 C98.22 1144.85 98.22 1145.51 98.22 1146.19 C80.43 1160.25 60.77 1164.23 38.61 1161.79 C26.95 1159.55 15.53 1153.47 6.22 1146.19 C6.22 1145.53 6.22 1144.87 6.22 1144.19 C5.56 1144.19 4.9 1144.19 4.22 1144.19 C4.22 1143.53 4.22 1142.87 4.22 1142.19 C2.9 1142.19 1.58 1142.19 0.22 1142.19 C0.22 1142.85 0.22 1143.51 0.22 1144.19 C-0.44 1144.19 -1.1 1144.19 -1.78 1144.19 C-1.78 1144.85 -1.78 1145.51 -1.78 1146.19 C-18.41 1159.34 -36.89 1163.99 -57.78 1162.19 C-70.53 1160.44 -83.88 1154.43 -93.78 1146.19 C-93.78 1145.53 -93.78 1144.87 -93.78 1144.19 C-94.44 1144.19 -95.1 1144.19 -95.78 1144.19 C-95.78 1143.53 -95.78 1142.87 -95.78 1142.19 C-96.77 1141.86 -97.76 1141.53 -98.78 1141.19 C-98.78 1140.53 -98.78 1139.87 -98.78 1139.19 C-99.44 1139.19 -100.1 1139.19 -100.78 1139.19 C-100.78 1138.53 -100.78 1137.87 -100.78 1137.19 C-101.44 1137.19 -102.1 1137.19 -102.78 1137.19 C-115 1121.73 -119.26 1105.68 -119.14 1086.32 C-119.14 1084.74 -119.14 1083.16 -119.14 1081.58 C-119.15 1077.28 -119.14 1072.97 -119.12 1068.67 C-119.11 1064.01 -119.12 1059.36 -119.12 1054.7 C-119.12 1046.65 -119.11 1038.6 -119.09 1030.54 C-119.07 1018.9 -119.06 1007.25 -119.06 995.61 C-119.05 976.71 -119.03 957.82 -119 938.93 C-118.97 920.58 -118.95 902.23 -118.94 883.88 C-118.94 882.75 -118.94 881.62 -118.94 880.45 C-118.93 874.77 -118.93 869.09 -118.93 863.41 C-118.9 816.34 -118.84 769.26 -118.78 722.19 C-119.79 722.19 -119.79 722.19 -120.83 722.2 C-121.73 722.21 -122.62 722.21 -123.54 722.22 C-124.87 722.23 -124.87 722.23 -126.22 722.24 C-133.97 722.08 -142.11 720.14 -148.83 716.25 C-150.96 715.04 -150.96 715.04 -154.1 713.81 C-170.87 706.72 -184.7 691.49 -192.19 675.1 C-193.15 672.48 -193.99 669.86 -194.78 667.19 C-195.34 665.58 -195.9 663.98 -196.46 662.37 C-198.69 655.93 -198.92 649.65 -198.92 642.91 C-198.92 641.99 -198.92 641.06 -198.93 640.11 C-198.93 637.01 -198.94 633.91 -198.94 630.82 C-198.94 628.59 -198.95 626.37 -198.95 624.15 C-198.96 618.11 -198.97 612.07 -198.98 606.03 C-198.98 602.25 -198.98 598.46 -198.99 594.68 C-199 584.19 -199.01 573.7 -199.01 563.21 C-199.01 562.54 -199.01 561.86 -199.01 561.17 C-199.01 560.5 -199.01 559.83 -199.01 559.14 C-199.01 557.77 -199.02 556.41 -199.02 555.05 C-199.02 554.37 -199.02 553.69 -199.02 553 C-199.02 542.08 -199.04 531.16 -199.06 520.25 C-199.09 509.01 -199.1 497.77 -199.1 486.53 C-199.1 480.23 -199.11 473.93 -199.12 467.63 C-199.14 461.69 -199.14 455.76 -199.13 449.82 C-199.13 447.65 -199.14 445.49 -199.15 443.33 C-199.22 425.33 -197.94 407.53 -192.78 390.19 C-192.5 389.26 -192.5 389.26 -192.22 388.32 C-185.68 366.45 -185.68 366.45 -180.97 357.47 C-179.7 355.04 -178.5 352.57 -177.3 350.09 C-174.22 343.79 -170.8 337.94 -166.78 332.19 C-166.03 330.95 -166.03 330.95 -165.28 329.69 C-163.8 327.22 -162.27 324.79 -160.71 322.37 C-160.21 321.58 -159.7 320.79 -159.18 319.98 C-158.72 319.39 -158.25 318.79 -157.78 318.19 C-157.12 318.19 -156.46 318.19 -155.78 318.19 C-155.51 317.61 -155.24 317.04 -154.96 316.45 C-153.73 314.11 -152.35 312.06 -150.78 309.94 C-150 308.88 -150 308.88 -149.21 307.79 C-148.74 307.26 -148.26 306.73 -147.78 306.19 C-147.12 306.19 -146.46 306.19 -145.78 306.19 C-145.53 305.61 -145.28 305.04 -145.02 304.45 C-140.45 296.15 -131.09 289.93 -123.78 284.19 C-122.98 283.56 -122.19 282.93 -121.37 282.29 C-116.05 278.19 -116.05 278.19 -113.78 278.19 C-113.78 277.53 -113.78 276.87 -113.78 276.19 C-111.72 274.67 -111.72 274.67 -108.9 272.94 C-107.39 272 -107.39 272 -105.85 271.05 C-104.84 270.44 -103.82 269.82 -102.78 269.19 C-101.92 268.65 -101.06 268.12 -100.17 267.57 C-84.88 258.19 -84.88 258.19 -78.78 258.19 C-82.03 254.84 -85.36 251.83 -89.03 248.94 C-97.19 242.31 -104.96 235.03 -110.78 226.19 C-110.78 225.53 -110.78 224.87 -110.78 224.19 C-111.44 224.19 -112.1 224.19 -112.78 224.19 C-117.96 218 -121.33 210.41 -124.78 203.19 C-125.28 202.16 -125.79 201.14 -126.31 200.09 C-135.61 180.87 -139.03 161.84 -139.09 140.62 C-139.09 139.34 -139.1 138.05 -139.1 136.73 C-139.05 129.88 -138.5 123.81 -136.78 117.19 C-136.65 115.83 -136.54 114.48 -136.46 113.12 C-135.26 101.25 -130.01 89.75 -124.78 79.19 C-124.45 78.47 -124.12 77.76 -123.79 77.03 C-118.01 64.63 -109.07 53.72 -99.96 43.62 C-99.24 42.82 -99.24 42.82 -98.51 41.99 C-97.31 40.68 -96.04 39.43 -94.78 38.19 C-94.12 38.19 -93.46 38.19 -92.78 38.19 C-92.78 37.53 -92.78 36.87 -92.78 36.19 C-82.63 26.45 -68.75 17.53 -55.78 12.19 C-54.58 11.69 -53.39 11.2 -52.16 10.69 C-41.07 6.19 -30.63 2.97 -18.78 1.19 C-17.87 1.01 -16.96 0.84 -16.02 0.67 C-10.7 -0.12 -5.37 -0 0 0 Z " fill="#000000" transform="translate(217.775634765625,98.814697265625)"/>
<path d="M0 0 C54.77 -1.44 109.95 15.77 152.89 50.06 C154.07 50.99 154.07 50.99 155.27 51.94 C162.53 57.74 169.22 63.99 175.76 70.56 C176.55 71.35 176.55 71.35 177.35 72.15 C186.04 80.88 193.91 89.89 200.89 100.06 C201.34 100.71 201.79 101.36 202.25 102.02 C205.22 106.32 208.08 110.66 210.89 115.06 C211.26 115.64 211.63 116.22 212.01 116.81 C217.33 125.16 222.15 133.55 225.79 142.76 C227.11 146.11 228.46 149.45 229.82 152.79 C241.25 181.28 246.01 210.63 246.07 241.23 C246.07 242.82 246.08 244.41 246.09 246 C246.11 251.18 246.12 256.36 246.13 261.55 C246.13 263.34 246.14 265.14 246.14 266.94 C246.16 275.38 246.17 283.82 246.18 292.26 C246.19 301.95 246.22 311.64 246.26 321.34 C246.29 328.87 246.3 336.39 246.31 343.92 C246.31 348.4 246.32 352.88 246.34 357.36 C246.37 361.58 246.37 365.8 246.36 370.02 C246.36 371.56 246.37 373.09 246.38 374.63 C246.54 393.39 242.44 408.7 229.3 422.68 C216.23 435.61 202.27 440.32 184.11 440.29 C182.86 440.27 181.61 440.26 180.33 440.25 C179.04 440.25 177.76 440.25 176.44 440.25 C167.03 440.2 167.03 440.2 165.89 439.06 C165.79 437.47 165.76 435.88 165.75 434.28 C165.75 433.24 165.74 432.2 165.73 431.13 C165.73 429.4 165.73 429.4 165.73 427.63 C165.73 426.41 165.72 425.19 165.72 423.94 C165.7 420.54 165.69 417.15 165.69 413.75 C165.68 410.1 165.67 406.44 165.65 402.78 C165.63 396.45 165.61 390.11 165.6 383.77 C165.58 374.6 165.55 365.44 165.52 356.27 C165.47 341.4 165.43 326.54 165.39 311.67 C165.35 297.22 165.31 282.77 165.26 268.33 C165.26 267.44 165.26 266.55 165.25 265.63 C165.24 261.17 165.23 256.7 165.21 252.24 C165.1 215.18 164.99 178.12 164.89 141.06 C159.64 141.04 154.39 141.02 149.14 141.01 C147.35 141 145.56 141 143.77 140.99 C141.21 140.97 138.64 140.97 136.08 140.96 C135.28 140.96 134.47 140.95 133.64 140.95 C131.73 140.95 129.81 141 127.89 141.06 C125.98 142.97 126.74 146.41 126.73 148.94 C126.72 150.03 126.72 150.03 126.72 151.15 C126.7 153.6 126.69 156.06 126.68 158.52 C126.67 160.27 126.66 162.02 126.65 163.78 C126.63 168.55 126.61 173.33 126.59 178.11 C126.56 183.09 126.54 188.08 126.51 193.07 C126.46 202.51 126.41 211.96 126.37 221.41 C126.32 232.17 126.27 242.92 126.21 253.68 C126.1 275.8 125.99 297.93 125.89 320.06 C95.46 320.08 65.03 320.1 34.6 320.11 C31.01 320.11 27.42 320.12 23.83 320.12 C23.12 320.12 22.4 320.12 21.67 320.12 C10.08 320.12 -1.5 320.13 -13.09 320.14 C-24.96 320.15 -36.84 320.15 -48.72 320.16 C-55.39 320.16 -62.07 320.16 -68.74 320.17 C-75.02 320.17 -81.29 320.18 -87.57 320.18 C-89.88 320.18 -92.19 320.18 -94.5 320.18 C-97.64 320.19 -100.78 320.19 -103.92 320.18 C-104.84 320.19 -105.77 320.19 -106.73 320.19 C-113 320.18 -113 320.18 -114.11 319.06 C-114.22 316.77 -114.26 314.48 -114.27 312.18 C-114.28 311.09 -114.28 311.09 -114.28 309.98 C-114.3 307.52 -114.31 305.07 -114.32 302.61 C-114.33 300.85 -114.34 299.1 -114.35 297.35 C-114.37 292.57 -114.39 287.79 -114.41 283.02 C-114.44 278.03 -114.46 273.04 -114.49 268.06 C-114.54 258.61 -114.59 249.16 -114.63 239.71 C-114.68 228.96 -114.73 218.2 -114.79 207.45 C-114.9 185.32 -115.01 163.19 -115.11 141.06 C-120.36 141.04 -125.61 141.02 -130.86 141.01 C-132.65 141 -134.44 141 -136.23 140.99 C-138.79 140.97 -141.36 140.97 -143.92 140.96 C-144.72 140.96 -145.53 140.95 -146.36 140.95 C-148.27 140.95 -150.19 141 -152.11 141.06 C-153.75 142.7 -153.24 144.58 -153.25 146.84 C-153.25 147.88 -153.26 148.92 -153.27 149.99 C-153.27 151.15 -153.27 152.3 -153.27 153.5 C-153.27 154.71 -153.28 155.93 -153.28 157.19 C-153.3 160.58 -153.31 163.98 -153.31 167.37 C-153.32 171.03 -153.33 174.68 -153.35 178.34 C-153.37 184.68 -153.39 191.02 -153.4 197.36 C-153.42 206.52 -153.45 215.69 -153.48 224.85 C-153.53 239.72 -153.57 254.59 -153.61 269.46 C-153.65 283.9 -153.69 298.35 -153.74 312.8 C-153.74 313.69 -153.74 314.58 -153.75 315.49 C-153.76 319.96 -153.77 324.42 -153.79 328.89 C-153.9 365.94 -154.01 403 -154.11 440.06 C-158.42 440.11 -162.74 440.14 -167.05 440.16 C-168.87 440.18 -168.87 440.18 -170.73 440.2 C-189.97 440.28 -204.76 434.27 -218.48 420.81 C-231.89 406.79 -234.43 388.88 -234.37 370.23 C-234.37 368.76 -234.38 367.3 -234.38 365.84 C-234.39 361.9 -234.39 357.95 -234.38 354.01 C-234.37 349.85 -234.38 345.69 -234.38 341.54 C-234.39 334.54 -234.38 327.55 -234.37 320.55 C-234.36 312.53 -234.36 304.51 -234.38 296.48 C-234.38 289.54 -234.39 282.61 -234.38 275.67 C-234.38 271.55 -234.38 267.43 -234.38 263.31 C-234.41 241.67 -234.31 219.99 -230.42 198.62 C-230.25 197.69 -230.09 196.76 -229.91 195.79 C-224.96 169.82 -215.63 143.82 -202.11 121.06 C-201.73 120.41 -201.34 119.76 -200.94 119.09 C-195.51 109.99 -189.65 101.4 -183.11 93.06 C-182.2 91.86 -182.2 91.86 -181.26 90.63 C-165.39 70.1 -145.67 52.03 -123.49 38.53 C-121.28 37.17 -119.21 35.7 -117.11 34.19 C-106.23 26.88 -93.26 21.84 -81.11 17.06 C-79.96 16.59 -78.82 16.12 -77.63 15.64 C-53.1 5.82 -26.37 0.77 0 0 Z " fill="#EE8B6F" transform="translate(973.11083984375,338.93798828125)"/>
<path d="M0 0 C0.77 -0.01 1.54 -0.03 2.33 -0.04 C20.08 -0.27 36.8 0.12 53.95 5.27 C55.27 5.67 55.27 5.67 56.62 6.07 C72.43 10.91 87.36 17.79 100.95 27.27 C101.91 27.94 102.88 28.61 103.88 29.3 C120.37 41.33 133.71 56.32 144.95 73.27 C145.69 74.36 146.44 75.44 147.2 76.55 C155.73 89.53 161.42 104.13 165.38 119.09 C165.62 119.97 165.85 120.85 166.09 121.76 C169.91 137.16 170.24 152.47 170.22 168.23 C170.22 170.4 170.23 172.56 170.24 174.73 C170.25 180.56 170.25 186.39 170.25 192.23 C170.25 197.11 170.25 201.99 170.26 206.87 C170.27 218.38 170.27 229.89 170.26 241.41 C170.25 253.27 170.27 265.13 170.29 276.99 C170.31 287.2 170.31 297.41 170.31 307.62 C170.31 313.71 170.31 319.8 170.32 325.88 C170.34 331.6 170.33 337.32 170.32 343.03 C170.32 345.13 170.32 347.22 170.33 349.32 C170.34 352.18 170.33 355.04 170.32 357.91 C170.33 358.73 170.33 359.55 170.34 360.4 C170.25 370.43 166.53 380.29 159.71 387.7 C152.67 394.38 145.13 399.06 135.26 399.4 C131.95 399.27 131.95 399.27 130.95 398.27 C129.16 386.13 129.77 373.54 129.74 361.31 C129.73 358.89 129.72 356.48 129.71 354.06 C129.69 348.21 129.67 342.36 129.65 336.51 C129.63 329.7 129.6 322.88 129.57 316.07 C129.53 303.92 129.48 291.77 129.44 279.62 C129.4 267.82 129.36 256.03 129.32 244.23 C129.31 243.51 129.31 242.78 129.31 242.03 C129.3 238.37 129.28 234.72 129.27 231.06 C129.15 200.8 129.05 170.54 128.95 140.27 C123.69 140.25 118.44 140.23 113.19 140.22 C111.4 140.21 109.62 140.21 107.83 140.2 C105.26 140.19 102.7 140.18 100.14 140.18 C99.33 140.17 98.53 140.17 97.7 140.16 C95.78 140.16 93.86 140.21 91.95 140.27 C90.22 141.99 90.8 144.28 90.79 146.63 C90.78 147.8 90.77 148.96 90.76 150.16 C90.75 151.44 90.75 152.73 90.74 154.05 C90.73 155.41 90.72 156.77 90.71 158.13 C90.68 161.84 90.66 165.54 90.64 169.24 C90.62 173.11 90.59 176.97 90.57 180.84 C90.52 188.16 90.47 195.48 90.43 202.81 C90.38 211.14 90.32 219.48 90.27 227.82 C90.15 244.97 90.05 262.12 89.95 279.27 C69.36 279.3 48.78 279.31 28.2 279.33 C18.64 279.33 9.08 279.34 -0.47 279.35 C-8.8 279.36 -17.13 279.37 -25.45 279.37 C-29.86 279.37 -34.28 279.37 -38.69 279.38 C-42.84 279.39 -46.98 279.39 -51.13 279.39 C-52.66 279.39 -54.18 279.39 -55.71 279.39 C-57.79 279.4 -59.86 279.4 -61.94 279.39 C-63.1 279.39 -64.26 279.4 -65.46 279.4 C-68.05 279.27 -68.05 279.27 -69.05 278.27 C-70.12 269.67 -70.22 260.98 -70.26 252.32 C-70.27 251.1 -70.28 249.88 -70.29 248.62 C-70.32 245.32 -70.34 242.02 -70.36 238.71 C-70.38 235.25 -70.41 231.78 -70.43 228.31 C-70.48 221.76 -70.53 215.21 -70.57 208.66 C-70.62 201.2 -70.68 193.74 -70.73 186.27 C-70.85 170.94 -70.95 155.61 -71.05 140.27 C-76.31 140.25 -81.56 140.23 -86.81 140.22 C-88.6 140.21 -90.38 140.21 -92.17 140.2 C-94.74 140.19 -97.3 140.18 -99.86 140.18 C-100.67 140.17 -101.47 140.17 -102.3 140.16 C-104.22 140.16 -106.14 140.21 -108.05 140.27 C-109.6 141.82 -109.19 143.27 -109.19 145.43 C-109.2 146.33 -109.2 147.23 -109.21 148.16 C-109.21 149.16 -109.21 150.16 -109.21 151.19 C-109.22 152.24 -109.22 153.3 -109.23 154.38 C-109.24 157.95 -109.25 161.51 -109.26 165.07 C-109.27 167.61 -109.28 170.15 -109.29 172.7 C-109.31 178.18 -109.33 183.67 -109.35 189.16 C-109.37 197.09 -109.4 205.03 -109.43 212.96 C-109.47 225.83 -109.52 238.71 -109.56 251.58 C-109.6 264.09 -109.64 276.59 -109.68 289.1 C-109.69 289.87 -109.69 290.64 -109.69 291.43 C-109.7 295.3 -109.72 299.16 -109.73 303.03 C-109.85 335.11 -109.95 367.19 -110.05 399.27 C-122.73 399.45 -131.98 393.7 -141.05 385.27 C-148.9 377.43 -150.15 365.57 -150.19 354.98 C-150.19 354.22 -150.18 353.46 -150.18 352.67 C-150.18 351.85 -150.18 351.02 -150.19 350.16 C-150.19 347.41 -150.19 344.65 -150.18 341.89 C-150.19 339.91 -150.19 337.92 -150.19 335.94 C-150.19 330.56 -150.19 325.18 -150.19 319.8 C-150.19 314.15 -150.19 308.5 -150.19 302.86 C-150.19 293.37 -150.19 283.88 -150.19 274.39 C-150.18 263.45 -150.18 252.51 -150.19 241.58 C-150.19 232.16 -150.19 222.75 -150.19 213.34 C-150.19 207.72 -150.19 202.11 -150.19 196.5 C-150.19 191.21 -150.19 185.93 -150.19 180.64 C-150.18 178.71 -150.19 176.79 -150.19 174.86 C-150.22 144.8 -150.22 144.8 -147.37 131.52 C-147.11 130.28 -147.11 130.28 -146.84 129.02 C-143.59 114.06 -139.16 99.85 -132.05 86.27 C-131.46 85.13 -130.87 83.98 -130.25 82.8 C-110.08 45.76 -75.99 19.13 -36.05 6.27 C-28.81 4.25 -21.46 2.64 -14.05 1.27 C-13.14 1.1 -12.22 0.92 -11.27 0.74 C-7.51 0.19 -3.79 0.06 0 0 Z " fill="#B0DC80" transform="translate(209.0546875,379.7265625)"/>
<path d="M0 0 C12.61 -0.02 25.23 -0.04 37.84 -0.05 C43.69 -0.06 49.55 -0.06 55.41 -0.08 C61.05 -0.09 66.7 -0.09 72.35 -0.09 C74.51 -0.1 76.67 -0.1 78.82 -0.11 C81.84 -0.11 84.85 -0.11 87.87 -0.11 C88.77 -0.12 89.67 -0.12 90.6 -0.12 C96.77 -0.11 96.77 -0.11 99 1 C99.07 46.29 99.13 91.58 99.17 136.88 C99.17 137.55 99.17 138.22 99.17 138.91 C99.18 153.48 99.19 168.06 99.2 182.64 C99.21 189.79 99.21 196.93 99.22 204.08 C99.22 204.79 99.22 205.5 99.22 206.24 C99.24 229.28 99.27 252.33 99.31 275.37 C99.34 299.06 99.37 322.75 99.38 346.43 C99.38 361.69 99.4 376.95 99.43 392.21 C99.45 402.22 99.46 412.22 99.45 422.23 C99.45 428 99.46 433.77 99.48 439.54 C99.5 444.83 99.5 450.12 99.48 455.41 C99.48 457.32 99.49 459.23 99.5 461.13 C99.61 478.31 96.98 492.51 85 505.69 C75.31 514.95 62.45 519.4 49.2 519.3 C34.59 518.96 22.77 513.36 12.22 503.35 C0.46 490.92 -0.59 477.69 -0.48 461.42 C-0.48 459.42 -0.49 457.43 -0.49 455.44 C-0.5 449.98 -0.48 444.52 -0.46 439.06 C-0.45 433.16 -0.45 427.27 -0.46 421.38 C-0.46 411.17 -0.45 400.96 -0.42 390.76 C-0.4 380.06 -0.38 369.36 -0.38 358.66 C-0.38 357.99 -0.38 357.32 -0.38 356.64 C-0.38 353.26 -0.38 349.87 -0.37 346.49 C-0.37 322.55 -0.34 298.61 -0.3 274.66 C-0.27 251.41 -0.24 228.16 -0.22 204.9 C-0.22 204.18 -0.22 203.47 -0.22 202.73 C-0.21 195.53 -0.21 188.32 -0.2 181.12 C-0.19 166.45 -0.18 151.78 -0.17 137.11 C-0.17 136.43 -0.17 135.76 -0.17 135.06 C-0.13 90.04 -0.07 45.02 0 0 Z " fill="#828C97" transform="translate(1000,700)"/>
<path d="M0 0 C12.61 -0.02 25.23 -0.04 37.84 -0.05 C43.69 -0.06 49.55 -0.06 55.41 -0.08 C61.05 -0.09 66.7 -0.09 72.35 -0.09 C74.51 -0.1 76.67 -0.1 78.82 -0.11 C81.84 -0.11 84.85 -0.11 87.87 -0.11 C88.77 -0.12 89.67 -0.12 90.6 -0.12 C96.77 -0.11 96.77 -0.11 99 1 C99.07 46.29 99.13 91.58 99.17 136.88 C99.17 137.55 99.17 138.22 99.17 138.91 C99.18 153.48 99.19 168.06 99.2 182.64 C99.21 189.79 99.21 196.93 99.22 204.08 C99.22 204.79 99.22 205.5 99.22 206.24 C99.24 229.28 99.27 252.33 99.31 275.37 C99.34 299.06 99.37 322.75 99.38 346.43 C99.38 361.69 99.4 376.95 99.43 392.21 C99.45 402.22 99.46 412.22 99.45 422.23 C99.45 428 99.46 433.77 99.48 439.54 C99.5 444.83 99.5 450.12 99.48 455.41 C99.48 457.32 99.49 459.23 99.5 461.13 C99.61 478.31 96.98 492.51 85 505.69 C75.31 514.95 62.45 519.4 49.2 519.3 C34.59 518.96 22.77 513.36 12.22 503.35 C0.46 490.92 -0.59 477.69 -0.48 461.42 C-0.48 459.42 -0.49 457.43 -0.49 455.44 C-0.5 449.98 -0.48 444.52 -0.46 439.06 C-0.45 433.16 -0.45 427.27 -0.46 421.38 C-0.46 411.17 -0.45 400.96 -0.42 390.76 C-0.4 380.06 -0.38 369.36 -0.38 358.66 C-0.38 357.99 -0.38 357.32 -0.38 356.64 C-0.38 353.26 -0.38 349.87 -0.37 346.49 C-0.37 322.55 -0.34 298.61 -0.3 274.66 C-0.27 251.41 -0.24 228.16 -0.22 204.9 C-0.22 204.18 -0.22 203.47 -0.22 202.73 C-0.21 195.53 -0.21 188.32 -0.2 181.12 C-0.19 166.45 -0.18 151.78 -0.17 137.11 C-0.17 136.43 -0.17 135.76 -0.17 135.06 C-0.13 90.04 -0.07 45.02 0 0 Z " fill="#828C97" transform="translate(860,700)"/>
<path d="M0 0 C0.67 0 1.35 0.01 2.04 0.01 C34.15 0.22 62.44 12.47 85.42 35.01 C89.21 38.89 92.55 43.11 95.81 47.44 C96.44 48.26 97.07 49.08 97.71 49.93 C101.59 55.23 104.64 60.73 107.48 66.65 C108.24 68.25 109.03 69.83 109.9 71.38 C123.7 96.05 122.59 129.21 115.17 155.59 C106.28 185.38 85.14 210.42 58.31 225.75 C31.74 239.35 0.96 243.78 -28.19 236.44 C-28.85 236.27 -29.52 236.1 -30.2 235.93 C-44.21 232.28 -57.54 226.07 -69.19 217.44 C-69.9 216.92 -70.61 216.4 -71.34 215.86 C-97.96 195.8 -114.4 168.39 -119.19 135.44 C-120.95 106.22 -116.94 76.69 -99.19 52.44 C-98.53 51.49 -97.88 50.55 -97.21 49.57 C-82.41 28.81 -62.27 14.39 -38.19 6.19 C-37.5 5.95 -36.81 5.72 -36.11 5.48 C-24.14 1.61 -12.56 -0.1 0 0 Z " fill="#ECD0B5" transform="translate(979.1875,59.5625)"/>
<path d="M0 0 C1.06 0.36 1.06 0.36 2.14 0.73 C27.18 9.54 47.18 28.48 58.75 52.25 C70.24 76.76 71.29 104.42 62.81 130.06 C58.09 142.45 51.95 153.16 43 163 C42.46 163.61 41.92 164.22 41.37 164.84 C24.85 182.44 1.77 193.88 -22.44 195.12 C-54.15 196.08 -78.75 187.62 -102.26 166.03 C-114.11 154.86 -121.93 142.45 -127 127 C-127.41 125.77 -127.83 124.53 -128.25 123.26 C-133.76 104.86 -133.09 83.15 -127 65 C-126.79 64.36 -126.57 63.72 -126.35 63.06 C-117.75 37.97 -100.47 18.42 -77.12 6.25 C-53.45 -5.11 -25.16 -8.76 0 0 Z " fill="#ECCFB4" transform="translate(251,144)"/>
<path d="M0 0 C7.4 -0.02 14.79 -0.04 22.19 -0.05 C25.63 -0.06 29.06 -0.06 32.5 -0.08 C36.44 -0.09 40.39 -0.09 44.34 -0.1 C45.57 -0.1 46.81 -0.11 48.08 -0.11 C49.22 -0.11 50.36 -0.11 51.54 -0.11 C53.05 -0.12 53.05 -0.12 54.6 -0.12 C57 0 57 0 59 1 C59.07 48.16 59.13 95.32 59.17 142.48 C59.17 143.53 59.17 143.53 59.17 144.6 C59.18 159.76 59.19 174.93 59.2 190.1 C59.21 197.54 59.21 204.98 59.22 212.42 C59.22 213.16 59.22 213.9 59.22 214.66 C59.24 238.66 59.27 262.65 59.31 286.64 C59.34 311.3 59.37 335.96 59.38 360.62 C59.38 364.1 59.38 367.58 59.38 371.06 C59.38 371.75 59.38 372.43 59.38 373.14 C59.39 384.17 59.4 395.21 59.43 406.24 C59.45 417.33 59.46 428.43 59.45 439.52 C59.45 445.53 59.46 451.54 59.48 457.55 C59.5 463.05 59.5 468.55 59.48 474.05 C59.48 476.05 59.49 478.04 59.5 480.03 C59.52 482.73 59.51 485.44 59.49 488.15 C59.51 489.3 59.51 489.3 59.52 490.49 C59.43 497.95 56.64 504.97 51.62 510.59 C44.04 517.19 36.68 519.49 26.78 519.4 C17.8 518.45 10.89 513.55 4.62 507.32 C0.42 501.31 -0.44 495.37 -0.37 488.25 C-0.37 487.41 -0.38 486.56 -0.38 485.68 C-0.39 482.85 -0.37 480.01 -0.36 477.17 C-0.36 475.11 -0.36 473.06 -0.37 471 C-0.38 465.35 -0.36 459.7 -0.35 454.05 C-0.34 447.96 -0.34 441.87 -0.34 435.78 C-0.34 425.22 -0.33 414.67 -0.32 404.11 C-0.3 393.04 -0.29 381.97 -0.28 370.91 C-0.28 370.22 -0.28 369.53 -0.28 368.82 C-0.28 365.32 -0.28 361.83 -0.28 358.33 C-0.27 333.57 -0.25 308.81 -0.23 284.06 C-0.2 260 -0.18 235.95 -0.16 211.9 C-0.16 211.16 -0.16 210.42 -0.16 209.65 C-0.16 202.21 -0.16 194.76 -0.15 187.32 C-0.14 172.15 -0.14 156.98 -0.13 141.81 C-0.13 141.11 -0.13 140.41 -0.13 139.7 C-0.1 93.13 -0.05 46.57 0 0 Z " fill="#EA8B70" transform="translate(240,700)"/>
<path d="M0 0 C7.4 -0.02 14.79 -0.04 22.19 -0.05 C25.63 -0.06 29.06 -0.06 32.5 -0.08 C36.44 -0.09 40.39 -0.09 44.34 -0.1 C45.57 -0.1 46.81 -0.11 48.08 -0.11 C49.22 -0.11 50.36 -0.11 51.54 -0.11 C53.05 -0.12 53.05 -0.12 54.6 -0.12 C57 0 57 0 59 1 C59.07 48.16 59.13 95.32 59.17 142.48 C59.17 143.53 59.17 143.53 59.17 144.6 C59.18 159.76 59.19 174.93 59.2 190.1 C59.21 197.54 59.21 204.98 59.22 212.42 C59.22 213.16 59.22 213.9 59.22 214.66 C59.24 238.66 59.27 262.65 59.31 286.64 C59.34 311.3 59.37 335.96 59.38 360.62 C59.38 364.1 59.38 367.58 59.38 371.06 C59.38 371.75 59.38 372.43 59.38 373.14 C59.39 384.17 59.4 395.21 59.43 406.24 C59.45 417.33 59.46 428.43 59.45 439.52 C59.45 445.53 59.46 451.54 59.48 457.55 C59.5 463.05 59.5 468.55 59.48 474.05 C59.48 476.05 59.49 478.04 59.5 480.03 C59.52 482.73 59.51 485.44 59.49 488.15 C59.51 489.3 59.51 489.3 59.52 490.49 C59.43 497.95 56.64 504.97 51.62 510.59 C44.04 517.19 36.68 519.49 26.78 519.4 C17.8 518.45 10.89 513.55 4.62 507.32 C0.42 501.31 -0.44 495.37 -0.37 488.25 C-0.37 487.41 -0.38 486.56 -0.38 485.68 C-0.39 482.85 -0.37 480.01 -0.36 477.17 C-0.36 475.11 -0.36 473.06 -0.37 471 C-0.38 465.35 -0.36 459.7 -0.35 454.05 C-0.34 447.96 -0.34 441.87 -0.34 435.78 C-0.34 425.22 -0.33 414.67 -0.32 404.11 C-0.3 393.04 -0.29 381.97 -0.28 370.91 C-0.28 370.22 -0.28 369.53 -0.28 368.82 C-0.28 365.32 -0.28 361.83 -0.28 358.33 C-0.27 333.57 -0.25 308.81 -0.23 284.06 C-0.2 260 -0.18 235.95 -0.16 211.9 C-0.16 211.16 -0.16 210.42 -0.16 209.65 C-0.16 202.21 -0.16 194.76 -0.15 187.32 C-0.14 172.15 -0.14 156.98 -0.13 141.81 C-0.13 141.11 -0.13 140.41 -0.13 139.7 C-0.1 93.13 -0.05 46.57 0 0 Z " fill="#EA8B70" transform="translate(140,700)"/>
<path d="M0 0 C0.65 -0 1.31 -0 1.98 -0 C4.19 -0.01 6.39 -0.01 8.6 -0 C10.17 -0 11.75 -0.01 13.32 -0.01 C17.61 -0.01 21.9 -0.01 26.19 -0.01 C30.67 -0 35.15 -0.01 39.62 -0.01 C47.15 -0.01 54.67 -0.01 62.19 -0 C70.9 0 79.61 0 88.32 -0.01 C95.79 -0.01 103.25 -0.01 110.71 -0.01 C115.18 -0.01 119.64 -0.01 124.11 -0.01 C128.3 -0.01 132.5 -0.01 136.69 -0 C138.24 -0 139.78 -0 141.33 -0.01 C143.43 -0.01 145.53 -0.01 147.62 0 C149.39 0 149.39 0 151.19 0 C153.81 0.13 153.81 0.13 154.81 1.13 C154.91 4.07 154.95 6.99 154.95 9.94 C154.95 10.82 154.95 11.71 154.95 12.62 C154.95 14.49 154.95 16.36 154.94 18.24 C154.94 21.11 154.94 23.99 154.95 26.87 C154.95 28.68 154.95 30.5 154.95 32.31 C154.95 33.18 154.95 34.05 154.95 34.94 C154.93 41.01 154.93 41.01 153.81 42.13 C151.75 42.23 149.69 42.25 147.62 42.25 C146.64 42.26 146.64 42.26 145.64 42.26 C143.44 42.26 141.23 42.26 139.03 42.26 C137.45 42.26 135.88 42.26 134.3 42.26 C130.01 42.27 125.72 42.26 121.44 42.26 C116.96 42.26 112.48 42.26 108 42.26 C100.48 42.26 92.95 42.26 85.43 42.26 C76.72 42.25 68.01 42.25 59.3 42.26 C51.84 42.26 44.38 42.26 36.91 42.26 C32.45 42.26 27.98 42.26 23.52 42.26 C19.32 42.27 15.13 42.26 10.93 42.26 C9.39 42.26 7.84 42.26 6.3 42.26 C4.2 42.26 2.1 42.26 0 42.25 C-1.77 42.25 -1.77 42.25 -3.57 42.25 C-6.19 42.13 -6.19 42.13 -7.19 41.13 C-7.29 38.18 -7.33 35.26 -7.32 32.31 C-7.32 31.43 -7.32 30.55 -7.32 29.64 C-7.32 27.76 -7.32 25.89 -7.32 24.02 C-7.31 21.14 -7.32 18.26 -7.32 15.38 C-7.32 13.57 -7.32 11.75 -7.32 9.94 C-7.32 9.07 -7.32 8.21 -7.33 7.31 C-7.3 0.11 -7.1 0 0 0 Z " fill="#000000" transform="translate(466.187744140625,978.8730163574219)"/>
<path d="M0 0 C0.65 -0 1.31 -0 1.98 -0 C4.19 -0.01 6.39 -0.01 8.6 -0 C10.17 -0 11.75 -0.01 13.32 -0.01 C17.61 -0.01 21.9 -0.01 26.19 -0.01 C30.67 -0 35.15 -0.01 39.62 -0.01 C47.15 -0.01 54.67 -0.01 62.19 -0 C70.9 0 79.61 0 88.32 -0.01 C95.79 -0.01 103.25 -0.01 110.71 -0.01 C115.18 -0.01 119.64 -0.01 124.11 -0.01 C128.3 -0.01 132.5 -0.01 136.69 -0 C138.24 -0 139.78 -0 141.33 -0.01 C143.43 -0.01 145.53 -0.01 147.62 0 C149.39 0 149.39 0 151.19 0 C153.81 0.13 153.81 0.13 154.81 1.13 C154.91 4.07 154.95 6.99 154.95 9.94 C154.95 10.82 154.95 11.71 154.95 12.62 C154.95 14.49 154.95 16.36 154.94 18.24 C154.94 21.11 154.94 23.99 154.95 26.87 C154.95 28.68 154.95 30.5 154.95 32.31 C154.95 33.18 154.95 34.05 154.95 34.94 C154.93 41.01 154.93 41.01 153.81 42.13 C151.75 42.23 149.69 42.25 147.62 42.25 C146.64 42.26 146.64 42.26 145.64 42.26 C143.44 42.26 141.23 42.26 139.03 42.26 C137.45 42.26 135.88 42.26 134.3 42.26 C130.01 42.27 125.72 42.26 121.44 42.26 C116.96 42.26 112.48 42.26 108 42.26 C100.48 42.26 92.95 42.26 85.43 42.26 C76.72 42.25 68.01 42.25 59.3 42.26 C51.84 42.26 44.38 42.26 36.91 42.26 C32.45 42.26 27.98 42.26 23.52 42.26 C19.32 42.27 15.13 42.26 10.93 42.26 C9.39 42.26 7.84 42.26 6.3 42.26 C4.2 42.26 2.1 42.26 0 42.25 C-1.77 42.25 -1.77 42.25 -3.57 42.25 C-6.19 42.13 -6.19 42.13 -7.19 41.13 C-7.29 38.18 -7.33 35.26 -7.32 32.31 C-7.32 31.43 -7.32 30.55 -7.32 29.64 C-7.32 27.76 -7.32 25.89 -7.32 24.02 C-7.31 21.14 -7.32 18.26 -7.32 15.38 C-7.32 13.57 -7.32 11.75 -7.32 9.94 C-7.32 9.07 -7.32 8.21 -7.33 7.31 C-7.3 0.11 -7.1 0 0 0 Z " fill="#000000" transform="translate(466.187744140625,98.87301635742188)"/>
<path d="M0 0 C1.3 0 1.3 0 2.63 0.01 C3.51 0.01 4.39 0 5.31 0 C7.18 0 9.05 0 10.92 0.01 C13.8 0.01 16.68 0.01 19.56 0 C21.37 0 23.19 0 25 0.01 C25.87 0 26.73 0 27.63 0 C33.7 0.02 33.7 0.02 34.81 1.14 C34.91 4.08 34.95 7.01 34.95 9.95 C34.95 10.84 34.95 11.72 34.95 12.63 C34.95 14.5 34.95 16.38 34.94 18.25 C34.94 21.13 34.94 24 34.95 26.88 C34.95 28.7 34.95 30.51 34.95 32.33 C34.95 33.19 34.95 34.06 34.95 34.95 C34.93 41.02 34.93 41.02 33.81 42.14 C30.87 42.24 27.95 42.28 25 42.27 C23.68 42.27 23.68 42.27 22.32 42.27 C20.45 42.28 18.58 42.27 16.7 42.27 C13.83 42.26 10.95 42.27 8.07 42.28 C6.26 42.28 4.44 42.27 2.63 42.27 C1.76 42.27 0.89 42.28 0 42.28 C-6.07 42.25 -6.07 42.25 -7.19 41.14 C-7.29 38.19 -7.33 35.27 -7.32 32.33 C-7.32 31.44 -7.32 30.56 -7.32 29.65 C-7.32 27.77 -7.32 25.9 -7.32 24.03 C-7.31 21.15 -7.32 18.27 -7.32 15.4 C-7.32 13.58 -7.32 11.77 -7.32 9.95 C-7.32 9.08 -7.32 8.22 -7.33 7.33 C-7.3 0.16 -7.17 0.03 0 0 Z " fill="#000000" transform="translate(666.186279296875,978.8610534667969)"/>
<path d="M0 0 C1.3 0 1.3 0 2.63 0.01 C3.51 0.01 4.39 0 5.31 0 C7.18 0 9.05 0 10.92 0.01 C13.8 0.01 16.68 0.01 19.56 0 C21.37 0 23.19 0 25 0.01 C25.87 0 26.73 0 27.63 0 C33.7 0.02 33.7 0.02 34.81 1.14 C34.91 4.08 34.95 7.01 34.95 9.95 C34.95 10.84 34.95 11.72 34.95 12.63 C34.95 14.5 34.95 16.38 34.94 18.25 C34.94 21.13 34.94 24 34.95 26.88 C34.95 28.7 34.95 30.51 34.95 32.33 C34.95 33.19 34.95 34.06 34.95 34.95 C34.93 41.02 34.93 41.02 33.81 42.14 C30.87 42.24 27.95 42.28 25 42.27 C23.68 42.27 23.68 42.27 22.32 42.27 C20.45 42.28 18.58 42.27 16.7 42.27 C13.83 42.26 10.95 42.27 8.07 42.28 C6.26 42.28 4.44 42.27 2.63 42.27 C1.76 42.27 0.89 42.28 0 42.28 C-6.07 42.25 -6.07 42.25 -7.19 41.14 C-7.29 38.19 -7.33 35.27 -7.32 32.33 C-7.32 31.44 -7.32 30.56 -7.32 29.65 C-7.32 27.77 -7.32 25.9 -7.32 24.03 C-7.31 21.15 -7.32 18.27 -7.32 15.4 C-7.32 13.58 -7.32 11.77 -7.32 9.95 C-7.32 9.08 -7.32 8.22 -7.33 7.33 C-7.3 0.16 -7.17 0.03 0 0 Z " fill="#000000" transform="translate(666.186279296875,98.86105346679688)"/>
<path d="M0 0 C57 0 57 0 59 1 C59 164.68 59 328.36 59 497 C58.67 497 58.34 497 58 497 C58 335.63 58 174.26 58 8 C57.34 8 56.68 8 56 8 C56.33 6.35 56.66 4.7 57 3 C39.18 3 21.36 3 3 3 C2.67 166.02 2.34 329.04 2 497 C1.34 497 0.68 497 0 497 C0 332.99 0 168.98 0 0 Z " fill="#EDAD91" transform="translate(240,700)"/>
<path d="M0 0 C57 0 57 0 59 1 C59 164.68 59 328.36 59 497 C58.67 497 58.34 497 58 497 C58 335.63 58 174.26 58 8 C57.34 8 56.68 8 56 8 C56.33 6.35 56.66 4.7 57 3 C39.18 3 21.36 3 3 3 C2.67 166.02 2.34 329.04 2 497 C1.34 497 0.68 497 0 497 C0 332.99 0 168.98 0 0 Z " fill="#EDAD91" transform="translate(140,700)"/>
<path d="M0 0 C0.99 0 1.98 0 3 0 C3 163.68 3 327.36 3 496 C2.67 496 2.34 496 2 496 C2 334.63 2 173.26 2 7 C1.34 7 0.68 7 0 7 C0.19 6.22 0.37 5.43 0.56 4.62 C1.26 2.03 1.26 2.03 0 0 Z " fill="#ECD0B5" transform="translate(296,701)"/>
<path d="M0 0 C0.99 0 1.98 0 3 0 C3 163.68 3 327.36 3 496 C2.67 496 2.34 496 2 496 C2 334.63 2 173.26 2 7 C1.34 7 0.68 7 0 7 C0.19 6.22 0.37 5.43 0.56 4.62 C1.26 2.03 1.26 2.03 0 0 Z " fill="#ECD0B5" transform="translate(196,701)"/>
<path d="M0 0 C1 0 2 0 3.03 0 C4.12 0.01 5.2 0.01 6.32 0.02 C7.42 0.02 8.53 0.02 9.67 0.02 C13.22 0.03 16.76 0.04 20.31 0.05 C22.71 0.06 25.11 0.06 27.51 0.06 C33.4 0.08 39.29 0.09 45.18 0.11 C43.55 2.09 42.66 3.03 40.1 3.49 C39.29 3.49 38.49 3.49 37.67 3.49 C36.76 3.49 35.85 3.5 34.91 3.5 C33.43 3.49 33.43 3.49 31.93 3.48 C30.92 3.48 29.91 3.48 28.87 3.48 C26.74 3.48 24.6 3.47 22.47 3.45 C19.2 3.43 15.92 3.43 12.65 3.44 C10.58 3.43 8.51 3.42 6.43 3.41 C5.45 3.42 4.47 3.42 3.46 3.42 C2.55 3.41 1.64 3.4 0.7 3.39 C-0.1 3.38 -0.9 3.38 -1.73 3.37 C-3.82 3.11 -3.82 3.11 -6.82 1.11 C-4.36 -0.12 -2.75 -0.01 0 0 Z " fill="#ECCDB2" transform="translate(251.81689453125,699.886474609375)"/>
<path d="M0 0 C1 0 2 0 3.03 0 C4.12 0.01 5.2 0.01 6.32 0.02 C7.42 0.02 8.53 0.02 9.67 0.02 C13.22 0.03 16.76 0.04 20.31 0.05 C22.71 0.06 25.11 0.06 27.51 0.06 C33.4 0.08 39.29 0.09 45.18 0.11 C43.55 2.09 42.66 3.03 40.1 3.49 C39.29 3.49 38.49 3.49 37.67 3.49 C36.76 3.49 35.85 3.5 34.91 3.5 C33.43 3.49 33.43 3.49 31.93 3.48 C30.92 3.48 29.91 3.48 28.87 3.48 C26.74 3.48 24.6 3.47 22.47 3.45 C19.2 3.43 15.92 3.43 12.65 3.44 C10.58 3.43 8.51 3.42 6.43 3.41 C5.45 3.42 4.47 3.42 3.46 3.42 C2.55 3.41 1.64 3.4 0.7 3.39 C-0.1 3.38 -0.9 3.38 -1.73 3.37 C-3.82 3.11 -3.82 3.11 -6.82 1.11 C-4.36 -0.12 -2.75 -0.01 0 0 Z " fill="#ECCDB2" transform="translate(151.81689453125,699.886474609375)"/>
</svg>
